<?xml version="1.0" encoding="utf-8"?>
<!-- Generator: Adobe Illustrator 16.0.0, SVG Export Plug-In . SVG Version: 6.00 Build 0)  -->
<!DOCTYPE svg PUBLIC "-//W3C//DTD SVG 1.1//EN" "http://www.w3.org/Graphics/SVG/1.1/DTD/svg11.dtd">
<svg version="1.1" xmlns="http://www.w3.org/2000/svg" xmlns:xlink="http://www.w3.org/1999/xlink" x="0px" y="0px"
	 width="610.56px" height="247.92px" viewBox="0 0 610.56 247.92" enable-background="new 0 0 610.56 247.92" xml:space="preserve">
<g id="SilkNodes_copy_8_1_" enable-background="new    ">
	<g id="SilkNodes_copy_8">
		<g>
			<path fill-rule="evenodd" clip-rule="evenodd" fill="#002E6E" d="M296.362,165.53l-41.872-52.989h-13.062v84.878h16.114v-57.041
				l44.923,57.751v-0.122h10.01v-85.588h-16.114V165.53z M438.944,145.995c-3.54-6.227-13.429-9.646-19.776-9.646
				c-17.579,0-30.641,10.744-30.641,31.501c0,19.779,13.306,31.5,31.007,31.5c7.324,0,14.771-2.441,19.41-9.646l0.977,8.303h13.917
				V61.582h-14.894V145.995z M420.51,185.554c-9.521,0-17.09-7.203-17.09-17.703c0-10.867,7.568-17.582,17.09-17.582
				c9.4,0,17.457,7.081,17.457,17.582C437.967,178.717,429.911,185.554,420.51,185.554z M559.062,159.465
				c-7.69-0.488-11.23-2.686-11.23-6.593c0-3.785,3.906-5.982,10.986-5.982c5.738,0,10.621,1.343,14.894,5.372l8.301-9.768
				c-6.958-6.105-14.038-7.937-23.438-7.937c-10.987,0-25.393,4.884-25.393,18.803c0,13.675,13.551,17.826,24.903,18.681
				c8.546,0.488,11.964,2.197,11.964,6.349c0,4.396-5.249,7.806-10.865,7.684l-62.867-0.031c-10.498,0-16.969-5.372-17.945-12.819
				h46.999c2.319-24.785-10.255-37.239-30.396-37.239c-19.532,0-31.983,13.187-31.983,31.501c0,19.29,12.3,30.91,33.055,30.91
				l62.939,0.088c17.223,0,25.835-9.104,25.835-19.727C584.82,162.762,570.416,160.197,559.062,159.465z M495.462,149.17
				c8.545,0,14.649,3.907,15.626,11.721h-32.473C480.813,153.077,487.405,149.17,495.462,149.17z"/>
		</g>
	</g>
</g>
<g id="Rectangle_3_copy_2_1_" enable-background="new    ">
	<g id="Rectangle_3_copy_2">
		<g>
			<path fill-rule="evenodd" clip-rule="evenodd" fill="#002E6E" d="M396.786,72.999c-10.254-1.221-19.044-3.297-19.044-10.745
				c0-6.349,5.737-11.355,17.701-11.355c9.277,0,17.334,4.64,20.265,9.523l12.817-6.593c-6.47-13.187-20.265-16.971-33.57-16.971
				c-15.748,0.122-33.082,7.326-33.082,24.907c0,19.168,16.113,23.809,33.57,25.884c11.353,1.221,19.776,4.518,19.776,12.576
				c0,9.279-9.521,12.82-19.654,12.82h-74.704v14.407h74.46c19.044,0,35.89-8.181,35.89-27.228
				C431.21,79.836,414.609,75.197,396.786,72.999z M466,125.255h14.771V39.911H466V125.255z M519.469,93.389l24.537-27.472v-0.854
				h-17.823l-20.265,24.175V39.911h-14.893v85.344h14.893V98.028l23.561,27.227h17.945v-1.099L519.469,93.389z"/>
		</g>
	</g>
</g>
<g id="Rectangle_9_copy_3_1_" enable-background="new    ">
	<g id="Rectangle_9_copy_3">
		<g>
			<rect x="438.961" y="39.836" fill="#00B69D" width="14.881" height="14.884"/>
		</g>
	</g>
</g>
<g id="Ellipse_6_copy_6_3_" enable-background="new    ">
	<g id="Ellipse_6_copy_6">
		<g>
			<path fill-rule="evenodd" clip-rule="evenodd" fill="#002E6E" d="M185.662,105.189c0-8.493,0-16.985,0-25.478
				c0-3.5-1.89-6.864-4.912-8.616c-9.69-5.618-19.377-11.239-29.07-16.859c-6.116-3.544-12.232-7.092-18.348-10.638
				c-3.561-2.063-8.018-5.6-12.31-5.6c-3.963,0-7.837,3.005-11.141,4.921c-6.505,3.774-13.01,7.545-19.518,11.317
				c-9.689,5.62-19.379,11.241-29.072,16.859c-3.019,1.752-4.91,5.117-4.91,8.616c0,6.382,0,12.763,0,19.145
				c-11.58-1.792-18.784-5.107-18.784-11.272c0-13.236,17.683-23.853,34.363-23.853l-0.45-0.009
				c-38.464,0-51.322,10.771-51.322,23.996c0,51.875,181.549,1.923,181.549,47.588c0,9.18-7.739,15.609-32.431,23.809l-0.126,0.053
				c24.6,0,55.618-5.174,55.618-23.861C224.799,117.956,208.565,109.413,185.662,105.189z M162.449,77.758L126.59,98.567
				c-2.606,1.512-6.831,1.512-9.437,0L81.293,77.758c-2.606-1.512-2.606-3.964,0-5.476l35.859-20.809
				c2.606-1.512,6.831-1.512,9.437,0l35.859,20.809C165.055,73.794,165.055,76.246,162.449,77.758z"/>
		</g>
	</g>
</g>
<g id="Rounded_Rectangle_7_copy_3_1_" enable-background="new    ">
	<g id="Rounded_Rectangle_7_copy_3">
		<g>
			<path fill="#E5E5E5" d="M188.85,178.257l-18.752-10.842l-41.533,24.013c-4.381,2.533-11.484,2.533-15.864,0l-41.534-24.013
				l-18.752,10.842c-4.381,2.533-4.381,6.64,0,9.172l60.286,34.855c4.38,2.532,11.483,2.532,15.864,0l60.286-34.855
				C193.23,184.896,193.23,180.79,188.85,178.257z"/>
		</g>
	</g>
</g>
<g id="Ellipse_6_copy_6_2_" enable-background="new    ">
	<g id="Ellipse_6_copy_6_1_">
		<g>
			<path fill="#00B69D" d="M121.865,122.011v62.833c3.668-0.377,7.23-3.097,10.299-4.876c6.505-3.771,13.01-7.546,19.516-11.316
				c9.693-5.62,19.379-11.24,29.07-16.856c2.663-1.545,4.098-3.715,4.604-6.032c0.196-0.796,0.309-1.653,0.309-2.587
				c0-7.29,0-14.579,0-21.869C170.456,117.975,146.676,119.787,121.865,122.011z M105.979,177.709
				c0.912,0.528,1.823,1.057,2.735,1.586c2.917,1.689,6.437,4.366,9.974,5.277v-62.275c-4.228,0.383-8.476,0.771-12.708,1.143
				V177.709z M112.168,170.104c1.316,0,2.383,1.068,2.383,2.387s-1.066,2.388-2.383,2.388c-1.316,0-2.383-1.069-2.383-2.388
				S110.852,170.104,112.168,170.104z M74.208,159.285c4.236,2.456,8.473,4.912,12.708,7.368v-41.719
				c-4.332,0.281-8.583,0.504-12.708,0.64V159.285z M80.248,151.246c1.316,0,2.383,1.068,2.383,2.387s-1.067,2.388-2.383,2.388
				s-2.383-1.069-2.383-2.388S78.932,151.246,80.248,151.246z"/>
		</g>
	</g>
</g>
<g id="Shape_11_1_" enable-background="new    ">
	<g id="Shape_11">
		<g>
			<path fill="#008ACC" d="M90.094,124.719v43.777c0.09,0.052,0.18,0.104,0.27,0.156c4.148,2.405,8.293,4.81,12.439,7.214v-52.151
				C98.527,124.081,94.278,124.424,90.094,124.719z M96.134,164.938c-1.316,0-2.383-1.068-2.383-2.387s1.067-2.387,2.383-2.387
				s2.383,1.068,2.383,2.387S97.45,164.938,96.134,164.938z M56.382,125.503c0,5.892,0,11.782,0,17.674
				c0,3.5,1.891,6.864,4.91,8.619c3.247,1.881,6.493,3.765,9.739,5.646v-31.781C65.901,125.775,60.987,125.742,56.382,125.503z
				 M63.882,146.319c-1.316,0-2.383-1.068-2.383-2.387s1.067-2.388,2.383-2.388s2.383,1.069,2.383,2.388
				S65.198,146.319,63.882,146.319z"/>
		</g>
	</g>
</g>
<g id="Shape_12__x2B__Layer_1_2_" enable-background="new    ">
	<defs>
		<path id="SVGID_1_" enable-background="new    " d="M382.661,173.302l-0.553-15.695c0.977-0.612,1.633-1.691,1.633-2.929
			c0-1.907-1.546-3.459-3.447-3.459c-0.43,0-0.838,0.089-1.218,0.234l-5.406-6.182c0.29-0.507,0.469-1.085,0.469-1.71
			c0-1.907-1.546-3.459-3.447-3.459c-0.876,0-1.668,0.34-2.276,0.883l-6.098-3.204c0-0.009,0.003-0.017,0.003-0.025
			c0-1.021-0.828-1.853-1.847-1.853c-0.683,0-1.272,0.377-1.593,0.931l-8.193-0.293c-0.284-1.622-1.69-2.861-3.387-2.861
			c-1.901,0-3.447,1.552-3.447,3.459c0,0.094,0.021,0.183,0.027,0.274l-14.359,7.477c-0.549-0.37-1.209-0.587-1.919-0.587
			c-1.9,0-3.446,1.551-3.446,3.458c0,0.776,0.266,1.486,0.697,2.063l-4.788,16.998c-1.169,0.192-2.065,1.205-2.065,2.431
			c0,1.197,0.855,2.197,1.986,2.422l6.813,15.078c-0.416,0.424-0.674,1.004-0.674,1.645c0,1.294,1.049,2.348,2.339,2.348
			c0.459,0,0.885-0.139,1.247-0.369l3.82,3.045c-0.17,0.392-0.267,0.822-0.267,1.276c0,1.771,1.437,3.211,3.201,3.211
			c1.226,0,2.279-0.701,2.817-1.718l11.278,2.071c0.285,1.621,1.69,2.858,3.386,2.858c1.901,0,3.447-1.552,3.447-3.459
			c0-0.059-0.015-0.113-0.018-0.171l14.138-6.265c0.563,0.611,1.361,1.001,2.254,1.001c1.697,0,3.078-1.385,3.078-3.088
			c0-0.697-0.24-1.334-0.63-1.852l5.422-9.18c0.124,0.02,0.248,0.038,0.378,0.038c1.358,0,2.463-1.107,2.463-2.47
			C384.48,174.538,383.706,173.587,382.661,173.302z M330.54,189.458c0.163-0.32,0.264-0.677,0.264-1.061
			c0-0.021-0.006-0.041-0.006-0.063l3.637-1.369c0.204,0.43,0.565,0.767,1.012,0.937l0.453,3.641
			c-0.641,0.116-1.217,0.42-1.665,0.859L330.54,189.458z M358.658,138.062c0.081,0.486,0.35,0.906,0.73,1.186l-1.259,3.585
			c-0.04-0.002-0.078-0.012-0.118-0.012c-0.479,0-0.917,0.169-1.271,0.442l-6.396-4.538c0.154-0.296,0.274-0.61,0.338-0.949
			L358.658,138.062z M378.009,152.107c-0.707,0.634-1.162,1.546-1.162,2.57c0,0.687,0.206,1.323,0.551,1.862l-5.23,6.175
			c-0.31-0.234-0.69-0.379-1.106-0.379c-0.385,0-0.741,0.119-1.037,0.321l-5.274-4.874c0.91-0.624,1.51-1.672,1.51-2.858
			c0-0.933-0.374-1.777-0.974-2.399l4.2-5.736c0.376,0.143,0.779,0.23,1.205,0.23c0.828,0,1.578-0.307,2.173-0.796L378.009,152.107z
			 M370.797,188.377l-8.99,0.311c-0.056-0.497-0.305-0.933-0.674-1.231l2.528-6.594c0.004,0,0.009,0.001,0.013,0.001
			c0.926,0,1.778-0.301,2.481-0.801l5.596,6.763C371.292,187.229,370.954,187.765,370.797,188.377z M353.948,194.203
			c-0.76,0-1.456,0.256-2.025,0.675l-4.506-4.821c0.081-0.209,0.13-0.434,0.13-0.671c0-0.011-0.003-0.021-0.003-0.032l4.374-3.448
			c0.252,0.088,0.519,0.146,0.8,0.146c0.424,0,0.817-0.118,1.167-0.309l4.251,3.159c0.002,0.344,0.102,0.661,0.267,0.937
			l-3.538,4.505C354.57,194.261,354.267,194.203,353.948,194.203z M338.716,192.416c-0.426-0.422-0.968-0.725-1.574-0.855
			l-0.453-3.64c0.728-0.249,1.255-0.934,1.255-1.746c0-0.351-0.103-0.675-0.271-0.954l1.222-1.227
			c0.505,0.208,1.056,0.327,1.635,0.327c0.456,0,0.887-0.091,1.3-0.223l2.59,3.958c-0.348,0.337-0.565,0.808-0.565,1.329
			c0,0.125,0.013,0.247,0.037,0.365L338.716,192.416z M331.024,148.008h8.588c0.168,0.369,0.437,0.68,0.772,0.897l-2.635,8.262
			c-1.428,0.082-2.614,1.03-3.056,2.334l-3.351,0.631c-0.305-0.715-0.938-1.253-1.706-1.433l-0.567-7.822
			C330.165,150.356,330.933,149.278,331.024,148.008z M347.3,140.597c0.883,0,1.682-0.345,2.292-0.895l6.438,4.568
			c-0.067,0.206-0.113,0.422-0.113,0.649c0,0.33,0.083,0.639,0.219,0.917l-4.132,3.886c-0.5-0.446-1.152-0.727-1.873-0.727
			c-0.844,0-1.594,0.38-2.113,0.969l-4.495-2.264c0.049-0.179,0.084-0.363,0.084-0.558c0-0.45-0.146-0.866-0.387-1.209l3.581-5.389
			C346.965,140.57,347.129,140.597,347.3,140.597z M368.427,146.148l-4.145,5.66c-0.448-0.214-0.942-0.343-1.471-0.343
			c-0.345,0-0.671,0.066-0.985,0.161l-2.647-4.966c0.43-0.291,0.742-0.74,0.865-1.263l7.442-0.585
			C367.69,145.333,368.016,145.785,368.427,146.148z M359.835,174.616c-0.291,0.582-0.471,1.229-0.471,1.924
			c0,1.944,1.294,3.573,3.058,4.115l-2.447,6.385c-0.561,0.002-1.056,0.259-1.394,0.656l-3.782-2.811
			c0.237-0.38,0.38-0.825,0.38-1.306c0-1.164-0.811-2.138-1.893-2.396l0.356-12.883c0.104-0.073,0.202-0.154,0.293-0.243
			L359.835,174.616z M331.26,174.17c0.021-0.112,0.035-0.228,0.035-0.347c0-0.228-0.047-0.442-0.121-0.644l3.216-1.986
			c0.282,0.176,0.612,0.282,0.969,0.282c0.063,0,0.123-0.013,0.185-0.019l2.283,5.202c-0.112,0.092-0.231,0.175-0.334,0.276
			L331.26,174.17z M331.516,161.355l2.999-0.564c0.069,1.295,0.845,2.396,1.952,2.929l-0.883,4.074
			c-0.074-0.01-0.148-0.023-0.226-0.023c-0.329,0-0.635,0.094-0.903,0.246l-4.029-4.852
			C331.029,162.768,331.437,162.111,331.516,161.355z M341.571,149.237c0.489-0.014,0.933-0.198,1.283-0.494l4.572,2.303
			c-0.074,0.253-0.126,0.515-0.126,0.791c0,0.562,0.168,1.082,0.449,1.522l-7.455,4.731c-0.368-0.347-0.813-0.604-1.304-0.763
			L341.571,149.237z M337.944,164.065c1.265,0,2.36-0.694,2.96-1.716l8.817,4.424l-12.647,2.175
			c-0.083-0.212-0.205-0.402-0.355-0.568l0.94-4.344C337.754,164.045,337.846,164.065,337.944,164.065z M349.907,165.485
			l-8.574-4.302c0.032-0.188,0.059-0.38,0.059-0.577c0-0.547-0.139-1.058-0.365-1.519l7.626-4.84c0.432,0.268,0.936,0.43,1.479,0.43
			c0.037,0,0.071-0.01,0.107-0.011l0.937,9.396C350.582,164.346,350.125,164.857,349.907,165.485z M340.529,175.676
			c-0.581,0-1.135,0.119-1.642,0.329l-2.226-5.071c0.203-0.203,0.352-0.458,0.443-0.737l13.279-2.283
			c0.104,0.118,0.218,0.225,0.342,0.322l-7.097,8.775C342.845,176.191,341.748,175.676,340.529,175.676z M352.389,163.835
			l-0.946-9.495c0.899-0.477,1.521-1.414,1.521-2.503c0-0.394-0.081-0.77-0.227-1.11l4.243-3.99c0.295,0.169,0.63,0.272,0.992,0.279
			l2.757,5.172c-0.823,0.633-1.364,1.618-1.364,2.737c0,0.766,0.258,1.468,0.68,2.042l-6.386,7.321
			C353.296,164.026,352.861,163.867,352.389,163.835z M345.7,187.533c-0.049,0-0.095,0.011-0.143,0.015l-2.604-3.98
			c1.137-0.778,1.885-2.087,1.885-3.568c0-0.698-0.182-1.349-0.476-1.934l7.551-9.338c0.104,0.013,0.205,0.031,0.312,0.031
			c0.06,0,0.115-0.014,0.174-0.018l-0.345,12.472c-1.035,0.293-1.799,1.237-1.799,2.367c0,0.61,0.229,1.163,0.597,1.595l-3.782,2.98
			C346.732,187.776,346.246,187.533,345.7,187.533z M329.08,163.571c0.025,0,0.049-0.007,0.074-0.008l4.484,5.399
			c-0.079,0.205-0.127,0.427-0.127,0.66c0,0.21,0.043,0.408,0.107,0.597l-3.25,2.006c-0.271-0.158-0.583-0.256-0.92-0.256
			c-0.47,0-0.896,0.183-1.222,0.475l-5.396-2.557c0.055-0.204,0.093-0.414,0.093-0.635c0-0.339-0.068-0.661-0.192-0.955l4.99-5.139
			C328.112,163.418,328.578,163.571,329.08,163.571z M329.819,186.491v-10.853c0.305-0.063,0.577-0.207,0.808-0.4l6.128,2.72
			c-0.33,0.61-0.534,1.299-0.534,2.041c0,1.348,0.63,2.537,1.596,3.331l-1.102,1.105c-0.194-0.069-0.399-0.114-0.617-0.114
			c-0.85,0-1.56,0.581-1.773,1.366l-3.886,1.462C330.275,186.892,330.066,186.669,329.819,186.491z M363.674,172.217
			c-1.229,0-2.333,0.525-3.119,1.356l-5.966-6.633c0.057-0.209,0.098-0.425,0.098-0.652c0-0.371-0.088-0.719-0.234-1.035
			l6.483-7.434c0.541,0.354,1.184,0.564,1.876,0.564c0.237,0,0.47-0.024,0.694-0.07l5.792,5.353c-0.05,0.167-0.084,0.34-0.084,0.522
			c0,0.412,0.14,0.79,0.368,1.099l-4.358,7.23C364.742,172.33,364.222,172.217,363.674,172.217z M322.228,170.968l5.403,2.561
			c-0.016,0.097-0.029,0.193-0.029,0.295c0,0.708,0.402,1.316,0.985,1.629v10.611c-0.042-0.002-0.081-0.013-0.123-0.013
			c-0.206,0-0.402,0.035-0.593,0.086l-6.582-14.568C321.647,171.439,321.968,171.236,322.228,170.968z M380.833,173.523
			l-7.939-9.482c-0.007-0.082-0.012-0.165-0.028-0.243l5.382-6.354c0.574,0.43,1.277,0.692,2.047,0.692
			c0.205,0,0.404-0.026,0.6-0.061l0.534,15.209C381.216,173.337,381.018,173.42,380.833,173.523z M367.245,143.562
			c0,0.011,0.003,0.021,0.003,0.031l-7.289,0.573c-0.139-0.36-0.375-0.669-0.676-0.901l1.288-3.666
			c0.524-0.028,0.988-0.275,1.307-0.654l5.769,3.031C367.398,142.453,367.245,142.987,367.245,143.562z M345.599,140.128
			l-3.356,5.054c-0.229-0.086-0.472-0.139-0.729-0.139c-1.027,0-1.88,0.748-2.056,1.729h-8.57c-0.104-0.348-0.248-0.677-0.448-0.969
			l13.767-7.168C344.51,139.265,344.997,139.782,345.599,140.128z M327.602,151.219c0.088,0,0.171-0.02,0.257-0.026l0.547,7.544
			c-1.028,0.296-1.788,1.238-1.788,2.364c0,0.41,0.109,0.791,0.286,1.131l-4.935,5.082c-0.198-0.155-0.418-0.281-0.658-0.371
			l4.564-16.206C326.385,151.035,326.97,151.219,327.602,151.219z M339.415,193.445l5.117-2.636
			c0.319,0.264,0.723,0.429,1.168,0.429c0.33,0,0.635-0.095,0.903-0.247l4.466,4.779c-0.242,0.37-0.415,0.787-0.502,1.237
			L339.637,195c0.01-0.102,0.03-0.199,0.03-0.303C339.667,194.253,339.577,193.83,339.415,193.445z M355.997,194.896l3.354-4.27
			c0.198,0.072,0.408,0.118,0.631,0.118c0.633,0,1.192-0.322,1.525-0.812l9.232-0.319c0.029,0.188,0.076,0.369,0.139,0.544
			l-13.782,6.105C356.853,195.717,356.47,195.25,355.997,194.896z M373.769,186.051c-0.325,0-0.633,0.064-0.927,0.159l-5.799-7.008
			c0.579-0.736,0.939-1.653,0.939-2.662c0-1.392-0.67-2.618-1.69-3.409l4.312-7.154c0.147,0.038,0.299,0.064,0.457,0.064
			c0.548,0,1.035-0.245,1.374-0.627l7.5,8.958c-0.237,0.38-0.38,0.824-0.38,1.304c0,0.786,0.375,1.479,0.947,1.933l-5.229,8.853
			C374.827,186.208,374.318,186.051,373.769,186.051z"/>
	</defs>
	<clipPath id="SVGID_2_">
		<use xlink:href="#SVGID_1_"  overflow="visible"/>
	</clipPath>
	<g transform="matrix(1 0 0 1 3.051758e-005 1.525879e-005)" clip-path="url(#SVGID_2_)">
		
			<image overflow="visible" width="280" height="284" id="Shape_12__x2B__Layer_1_xA0_Image" xlink:href="BAE97AA2.png"  transform="matrix(0.24 0 0 0.24 317.52 133.2002)">
		</image>
	</g>
</g>
</svg>
